<mxfile host="app.diagrams.net" agent="Mozilla/5.0 (Windows NT 10.0; Win64; x64; rv:137.0) Gecko/20100101 Firefox/137.0" version="26.2.12">
  <diagram id="prtHgNgQTEPvFCAcTncT" name="Page-1">
    <mxGraphModel dx="2318" dy="813" grid="1" gridSize="2" guides="1" tooltips="1" connect="1" arrows="1" fold="1" page="1" pageScale="1" pageWidth="827" pageHeight="1169" math="0" shadow="0">
      <root>
        <mxCell id="0" />
        <mxCell id="1" parent="0" />
        <mxCell id="14ZoN0ZYB_wwwbcgoB_J-1" value="" style="whiteSpace=wrap;html=1;aspect=fixed;" vertex="1" parent="1">
          <mxGeometry x="160" y="40" width="740" height="740" as="geometry" />
        </mxCell>
        <mxCell id="14ZoN0ZYB_wwwbcgoB_J-2" value="" style="whiteSpace=wrap;html=1;aspect=fixed;" vertex="1" parent="1">
          <mxGeometry x="630" y="80" width="100" height="100" as="geometry" />
        </mxCell>
        <mxCell id="14ZoN0ZYB_wwwbcgoB_J-3" value="" style="whiteSpace=wrap;html=1;aspect=fixed;" vertex="1" parent="1">
          <mxGeometry x="630" y="220" width="100" height="100" as="geometry" />
        </mxCell>
        <mxCell id="14ZoN0ZYB_wwwbcgoB_J-4" value="" style="whiteSpace=wrap;html=1;aspect=fixed;" vertex="1" parent="1">
          <mxGeometry x="630" y="350" width="100" height="100" as="geometry" />
        </mxCell>
        <mxCell id="14ZoN0ZYB_wwwbcgoB_J-5" value="" style="whiteSpace=wrap;html=1;aspect=fixed;" vertex="1" parent="1">
          <mxGeometry x="630" y="500" width="100" height="100" as="geometry" />
        </mxCell>
        <mxCell id="14ZoN0ZYB_wwwbcgoB_J-6" value="" style="whiteSpace=wrap;html=1;aspect=fixed;" vertex="1" parent="1">
          <mxGeometry x="630" y="640" width="100" height="100" as="geometry" />
        </mxCell>
        <mxCell id="14ZoN0ZYB_wwwbcgoB_J-9" value="&lt;div&gt;User&lt;/div&gt;&lt;div&gt;Microservice&lt;/div&gt;" style="text;html=1;align=center;verticalAlign=middle;whiteSpace=wrap;rounded=0;" vertex="1" parent="1">
          <mxGeometry x="650" y="100" width="60" height="30" as="geometry" />
        </mxCell>
        <mxCell id="14ZoN0ZYB_wwwbcgoB_J-10" value="Port No: 1006" style="text;html=1;align=center;verticalAlign=middle;whiteSpace=wrap;rounded=0;" vertex="1" parent="1">
          <mxGeometry x="650" y="140" width="60" height="30" as="geometry" />
        </mxCell>
        <mxCell id="14ZoN0ZYB_wwwbcgoB_J-11" value="&lt;div&gt;Flight&lt;/div&gt;&lt;div&gt;Microservice&lt;/div&gt;&lt;div&gt;&lt;br&gt;&lt;/div&gt;&lt;div&gt;Port No:&lt;/div&gt;&lt;div&gt;1000&lt;/div&gt;" style="text;html=1;align=center;verticalAlign=middle;whiteSpace=wrap;rounded=0;" vertex="1" parent="1">
          <mxGeometry x="650" y="250" width="60" height="40" as="geometry" />
        </mxCell>
        <mxCell id="14ZoN0ZYB_wwwbcgoB_J-12" value="&lt;div&gt;Booking&lt;/div&gt;&lt;div&gt;Microservice&lt;/div&gt;&lt;div&gt;&lt;br&gt;&lt;/div&gt;&lt;div&gt;Port No:&lt;/div&gt;&lt;div&gt;1004&lt;/div&gt;" style="text;html=1;align=center;verticalAlign=middle;whiteSpace=wrap;rounded=0;" vertex="1" parent="1">
          <mxGeometry x="650" y="380" width="60" height="30" as="geometry" />
        </mxCell>
        <mxCell id="14ZoN0ZYB_wwwbcgoB_J-13" value="&lt;div&gt;CheckIn &lt;br&gt;&lt;/div&gt;&lt;div&gt;Microservice&lt;/div&gt;&lt;div&gt;&lt;br&gt;&lt;/div&gt;&lt;div&gt;Port No:&lt;/div&gt;&lt;div&gt;1006&lt;/div&gt;" style="text;html=1;align=center;verticalAlign=middle;whiteSpace=wrap;rounded=0;" vertex="1" parent="1">
          <mxGeometry x="650" y="530" width="60" height="30" as="geometry" />
        </mxCell>
        <mxCell id="14ZoN0ZYB_wwwbcgoB_J-14" value="&lt;div&gt;Payment&lt;/div&gt;&lt;div&gt;Microservice&lt;/div&gt;&lt;div&gt;&lt;br&gt;&lt;/div&gt;&lt;div&gt;Port No:&lt;/div&gt;&lt;div&gt;1007&lt;/div&gt;" style="text;html=1;align=center;verticalAlign=middle;whiteSpace=wrap;rounded=0;" vertex="1" parent="1">
          <mxGeometry x="650" y="670" width="60" height="30" as="geometry" />
        </mxCell>
        <mxCell id="14ZoN0ZYB_wwwbcgoB_J-25" value="" style="endArrow=classic;html=1;rounded=0;exitX=1;exitY=0.5;exitDx=0;exitDy=0;entryX=1;entryY=0.5;entryDx=0;entryDy=0;" edge="1" parent="1" source="14ZoN0ZYB_wwwbcgoB_J-3" target="14ZoN0ZYB_wwwbcgoB_J-2">
          <mxGeometry width="50" height="50" relative="1" as="geometry">
            <mxPoint x="500" y="410" as="sourcePoint" />
            <mxPoint x="550" y="360" as="targetPoint" />
            <Array as="points">
              <mxPoint x="820" y="230" />
            </Array>
          </mxGeometry>
        </mxCell>
        <mxCell id="14ZoN0ZYB_wwwbcgoB_J-26" value="" style="endArrow=classic;html=1;rounded=0;exitX=0.962;exitY=0.572;exitDx=0;exitDy=0;exitPerimeter=0;entryX=1.01;entryY=0.594;entryDx=0;entryDy=0;entryPerimeter=0;" edge="1" parent="1" source="14ZoN0ZYB_wwwbcgoB_J-6" target="14ZoN0ZYB_wwwbcgoB_J-4">
          <mxGeometry width="50" height="50" relative="1" as="geometry">
            <mxPoint x="500" y="430" as="sourcePoint" />
            <mxPoint x="550" y="380" as="targetPoint" />
            <Array as="points">
              <mxPoint x="840" y="580" />
            </Array>
          </mxGeometry>
        </mxCell>
        <mxCell id="14ZoN0ZYB_wwwbcgoB_J-27" value="" style="endArrow=classic;html=1;rounded=0;entryX=1;entryY=0.5;entryDx=0;entryDy=0;exitX=1;exitY=0.5;exitDx=0;exitDy=0;" edge="1" parent="1" source="14ZoN0ZYB_wwwbcgoB_J-3" target="14ZoN0ZYB_wwwbcgoB_J-4">
          <mxGeometry width="50" height="50" relative="1" as="geometry">
            <mxPoint x="500" y="430" as="sourcePoint" />
            <mxPoint x="550" y="380" as="targetPoint" />
            <Array as="points">
              <mxPoint x="810" y="320" />
            </Array>
          </mxGeometry>
        </mxCell>
        <mxCell id="14ZoN0ZYB_wwwbcgoB_J-28" value="" style="endArrow=classic;html=1;rounded=0;exitX=1;exitY=0.85;exitDx=0;exitDy=0;exitPerimeter=0;" edge="1" parent="1" source="14ZoN0ZYB_wwwbcgoB_J-4">
          <mxGeometry width="50" height="50" relative="1" as="geometry">
            <mxPoint x="530" y="430" as="sourcePoint" />
            <mxPoint x="730" y="280" as="targetPoint" />
            <Array as="points">
              <mxPoint x="810" y="390" />
            </Array>
          </mxGeometry>
        </mxCell>
        <mxCell id="14ZoN0ZYB_wwwbcgoB_J-29" value="" style="endArrow=classic;html=1;rounded=0;exitX=0.99;exitY=0.35;exitDx=0;exitDy=0;exitPerimeter=0;entryX=1;entryY=0.75;entryDx=0;entryDy=0;" edge="1" parent="1" source="14ZoN0ZYB_wwwbcgoB_J-4" target="14ZoN0ZYB_wwwbcgoB_J-2">
          <mxGeometry width="50" height="50" relative="1" as="geometry">
            <mxPoint x="530" y="320" as="sourcePoint" />
            <mxPoint x="580" y="270" as="targetPoint" />
            <Array as="points">
              <mxPoint x="840" y="350" />
            </Array>
          </mxGeometry>
        </mxCell>
        <mxCell id="14ZoN0ZYB_wwwbcgoB_J-30" value="" style="endArrow=classic;html=1;rounded=0;exitX=1.014;exitY=0.572;exitDx=0;exitDy=0;exitPerimeter=0;entryX=1;entryY=0.5;entryDx=0;entryDy=0;" edge="1" parent="1" source="14ZoN0ZYB_wwwbcgoB_J-5" target="14ZoN0ZYB_wwwbcgoB_J-4">
          <mxGeometry width="50" height="50" relative="1" as="geometry">
            <mxPoint x="530" y="460" as="sourcePoint" />
            <mxPoint x="580" y="410" as="targetPoint" />
            <Array as="points">
              <mxPoint x="850" y="500" />
            </Array>
          </mxGeometry>
        </mxCell>
        <mxCell id="14ZoN0ZYB_wwwbcgoB_J-32" value="" style="rounded=0;whiteSpace=wrap;html=1;direction=south;" vertex="1" parent="1">
          <mxGeometry x="250" y="110" width="120" height="490" as="geometry" />
        </mxCell>
        <mxCell id="14ZoN0ZYB_wwwbcgoB_J-34" value="&lt;div&gt;&lt;font style=&quot;font-size: 18px;&quot;&gt;API&lt;/font&gt;&lt;/div&gt;&lt;div&gt;&lt;font style=&quot;font-size: 18px;&quot;&gt;GATEWAY&lt;/font&gt;&lt;/div&gt;" style="text;html=1;align=center;verticalAlign=middle;whiteSpace=wrap;rounded=0;" vertex="1" parent="1">
          <mxGeometry x="280" y="360" width="60" height="30" as="geometry" />
        </mxCell>
        <mxCell id="14ZoN0ZYB_wwwbcgoB_J-35" value="&lt;font style=&quot;font-size: 15px;&quot;&gt;Localhost :&lt;br&gt;1001&lt;/font&gt;" style="text;html=1;align=center;verticalAlign=middle;whiteSpace=wrap;rounded=0;" vertex="1" parent="1">
          <mxGeometry x="270" y="230" width="80" height="30" as="geometry" />
        </mxCell>
        <mxCell id="14ZoN0ZYB_wwwbcgoB_J-37" value="" style="rounded=0;whiteSpace=wrap;html=1;" vertex="1" parent="1">
          <mxGeometry x="250" y="670" width="160" height="80" as="geometry" />
        </mxCell>
        <mxCell id="14ZoN0ZYB_wwwbcgoB_J-38" value="&lt;font style=&quot;font-size: 15px;&quot;&gt;Service Registry&lt;br&gt;Port No : 8761&lt;/font&gt;" style="text;html=1;align=center;verticalAlign=middle;whiteSpace=wrap;rounded=0;" vertex="1" parent="1">
          <mxGeometry x="270" y="690" width="120" height="30" as="geometry" />
        </mxCell>
        <mxCell id="14ZoN0ZYB_wwwbcgoB_J-39" value="" style="endArrow=classic;html=1;rounded=0;exitX=0.5;exitY=0;exitDx=0;exitDy=0;entryX=-0.036;entryY=0.581;entryDx=0;entryDy=0;entryPerimeter=0;" edge="1" parent="1" source="14ZoN0ZYB_wwwbcgoB_J-32" target="14ZoN0ZYB_wwwbcgoB_J-2">
          <mxGeometry width="50" height="50" relative="1" as="geometry">
            <mxPoint x="460" y="370" as="sourcePoint" />
            <mxPoint x="510" y="320" as="targetPoint" />
          </mxGeometry>
        </mxCell>
        <mxCell id="14ZoN0ZYB_wwwbcgoB_J-40" value="" style="endArrow=classic;html=1;rounded=0;exitX=0.547;exitY=0.036;exitDx=0;exitDy=0;exitPerimeter=0;entryX=0.02;entryY=0.592;entryDx=0;entryDy=0;entryPerimeter=0;" edge="1" parent="1" source="14ZoN0ZYB_wwwbcgoB_J-32" target="14ZoN0ZYB_wwwbcgoB_J-3">
          <mxGeometry width="50" height="50" relative="1" as="geometry">
            <mxPoint x="460" y="370" as="sourcePoint" />
            <mxPoint x="510" y="320" as="targetPoint" />
          </mxGeometry>
        </mxCell>
        <mxCell id="14ZoN0ZYB_wwwbcgoB_J-41" value="" style="endArrow=classic;html=1;rounded=0;exitX=0.609;exitY=0.028;exitDx=0;exitDy=0;exitPerimeter=0;entryX=0.635;entryY=0.486;entryDx=0;entryDy=0;entryPerimeter=0;" edge="1" parent="1" source="14ZoN0ZYB_wwwbcgoB_J-32" target="14ZoN0ZYB_wwwbcgoB_J-1">
          <mxGeometry width="50" height="50" relative="1" as="geometry">
            <mxPoint x="460" y="370" as="sourcePoint" />
            <mxPoint x="510" y="320" as="targetPoint" />
          </mxGeometry>
        </mxCell>
        <mxCell id="14ZoN0ZYB_wwwbcgoB_J-42" value="" style="endArrow=classic;html=1;rounded=0;exitX=0.671;exitY=0.013;exitDx=0;exitDy=0;exitPerimeter=0;entryX=0.635;entryY=0.676;entryDx=0;entryDy=0;entryPerimeter=0;" edge="1" parent="1" source="14ZoN0ZYB_wwwbcgoB_J-32" target="14ZoN0ZYB_wwwbcgoB_J-1">
          <mxGeometry width="50" height="50" relative="1" as="geometry">
            <mxPoint x="460" y="440" as="sourcePoint" />
            <mxPoint x="510" y="390" as="targetPoint" />
          </mxGeometry>
        </mxCell>
        <mxCell id="14ZoN0ZYB_wwwbcgoB_J-43" value="" style="endArrow=classic;html=1;rounded=0;exitX=0.75;exitY=0;exitDx=0;exitDy=0;entryX=0;entryY=0.5;entryDx=0;entryDy=0;" edge="1" parent="1" source="14ZoN0ZYB_wwwbcgoB_J-32" target="14ZoN0ZYB_wwwbcgoB_J-6">
          <mxGeometry width="50" height="50" relative="1" as="geometry">
            <mxPoint x="460" y="440" as="sourcePoint" />
            <mxPoint x="510" y="390" as="targetPoint" />
          </mxGeometry>
        </mxCell>
        <mxCell id="14ZoN0ZYB_wwwbcgoB_J-44" value="&lt;font style=&quot;font-size: 20px;&quot;&gt;Client&lt;/font&gt;" style="ellipse;whiteSpace=wrap;html=1;aspect=fixed;" vertex="1" parent="1">
          <mxGeometry x="-20" y="360" width="80" height="80" as="geometry" />
        </mxCell>
        <mxCell id="14ZoN0ZYB_wwwbcgoB_J-45" value="" style="endArrow=classic;html=1;rounded=0;exitX=1;exitY=0.5;exitDx=0;exitDy=0;" edge="1" parent="1" source="14ZoN0ZYB_wwwbcgoB_J-44">
          <mxGeometry width="50" height="50" relative="1" as="geometry">
            <mxPoint x="350" y="450" as="sourcePoint" />
            <mxPoint x="250" y="400" as="targetPoint" />
          </mxGeometry>
        </mxCell>
        <mxCell id="14ZoN0ZYB_wwwbcgoB_J-46" value="" style="shape=cylinder3;whiteSpace=wrap;html=1;boundedLbl=1;backgroundOutline=1;size=15;" vertex="1" parent="1">
          <mxGeometry x="980" y="80" width="60" height="80" as="geometry" />
        </mxCell>
        <mxCell id="14ZoN0ZYB_wwwbcgoB_J-47" value="" style="shape=cylinder3;whiteSpace=wrap;html=1;boundedLbl=1;backgroundOutline=1;size=15;" vertex="1" parent="1">
          <mxGeometry x="980" y="210" width="60" height="80" as="geometry" />
        </mxCell>
        <mxCell id="14ZoN0ZYB_wwwbcgoB_J-48" value="&#xa;MySQL&#xa;&#xa;" style="shape=cylinder3;whiteSpace=wrap;html=1;boundedLbl=1;backgroundOutline=1;size=15;" vertex="1" parent="1">
          <mxGeometry x="980" y="350" width="60" height="80" as="geometry" />
        </mxCell>
        <mxCell id="14ZoN0ZYB_wwwbcgoB_J-49" value="&#xa;MySQL&#xa;&#xa;" style="shape=cylinder3;whiteSpace=wrap;html=1;boundedLbl=1;backgroundOutline=1;size=15;" vertex="1" parent="1">
          <mxGeometry x="980" y="500" width="60" height="80" as="geometry" />
        </mxCell>
        <mxCell id="14ZoN0ZYB_wwwbcgoB_J-50" value="&#xa;MySQL&#xa;&#xa;" style="shape=cylinder3;whiteSpace=wrap;html=1;boundedLbl=1;backgroundOutline=1;size=15;" vertex="1" parent="1">
          <mxGeometry x="980" y="640" width="60" height="80" as="geometry" />
        </mxCell>
        <mxCell id="14ZoN0ZYB_wwwbcgoB_J-51" value="" style="endArrow=classic;html=1;rounded=0;exitX=1;exitY=0.4;exitDx=0;exitDy=0;exitPerimeter=0;entryX=0;entryY=0.5;entryDx=0;entryDy=0;entryPerimeter=0;" edge="1" parent="1" source="14ZoN0ZYB_wwwbcgoB_J-2" target="14ZoN0ZYB_wwwbcgoB_J-46">
          <mxGeometry width="50" height="50" relative="1" as="geometry">
            <mxPoint x="810" y="360" as="sourcePoint" />
            <mxPoint x="860" y="310" as="targetPoint" />
          </mxGeometry>
        </mxCell>
        <mxCell id="14ZoN0ZYB_wwwbcgoB_J-52" value="" style="endArrow=classic;html=1;rounded=0;exitX=1;exitY=0.4;exitDx=0;exitDy=0;exitPerimeter=0;" edge="1" parent="1" source="14ZoN0ZYB_wwwbcgoB_J-3">
          <mxGeometry width="50" height="50" relative="1" as="geometry">
            <mxPoint x="810" y="360" as="sourcePoint" />
            <mxPoint x="980" y="260" as="targetPoint" />
          </mxGeometry>
        </mxCell>
        <mxCell id="14ZoN0ZYB_wwwbcgoB_J-53" value="" style="endArrow=classic;html=1;rounded=0;entryX=0;entryY=0;entryDx=0;entryDy=27.5;entryPerimeter=0;" edge="1" parent="1" target="14ZoN0ZYB_wwwbcgoB_J-48">
          <mxGeometry width="50" height="50" relative="1" as="geometry">
            <mxPoint x="730" y="380" as="sourcePoint" />
            <mxPoint x="860" y="320" as="targetPoint" />
          </mxGeometry>
        </mxCell>
        <mxCell id="14ZoN0ZYB_wwwbcgoB_J-54" value="" style="endArrow=classic;html=1;rounded=0;exitX=1;exitY=0.5;exitDx=0;exitDy=0;entryX=0;entryY=0;entryDx=0;entryDy=52.5;entryPerimeter=0;" edge="1" parent="1" source="14ZoN0ZYB_wwwbcgoB_J-5" target="14ZoN0ZYB_wwwbcgoB_J-49">
          <mxGeometry width="50" height="50" relative="1" as="geometry">
            <mxPoint x="810" y="530" as="sourcePoint" />
            <mxPoint x="860" y="480" as="targetPoint" />
          </mxGeometry>
        </mxCell>
        <mxCell id="14ZoN0ZYB_wwwbcgoB_J-55" value="" style="endArrow=classic;html=1;rounded=0;exitX=1;exitY=0.5;exitDx=0;exitDy=0;entryX=0;entryY=0;entryDx=0;entryDy=52.5;entryPerimeter=0;" edge="1" parent="1" source="14ZoN0ZYB_wwwbcgoB_J-6" target="14ZoN0ZYB_wwwbcgoB_J-50">
          <mxGeometry width="50" height="50" relative="1" as="geometry">
            <mxPoint x="810" y="480" as="sourcePoint" />
            <mxPoint x="860" y="430" as="targetPoint" />
          </mxGeometry>
        </mxCell>
        <mxCell id="14ZoN0ZYB_wwwbcgoB_J-56" value="MySQL" style="text;html=1;align=center;verticalAlign=middle;whiteSpace=wrap;rounded=0;" vertex="1" parent="1">
          <mxGeometry x="980" y="120" width="60" height="30" as="geometry" />
        </mxCell>
        <mxCell id="14ZoN0ZYB_wwwbcgoB_J-57" value="MySQL" style="text;html=1;align=center;verticalAlign=middle;whiteSpace=wrap;rounded=0;" vertex="1" parent="1">
          <mxGeometry x="980" y="250" width="60" height="30" as="geometry" />
        </mxCell>
      </root>
    </mxGraphModel>
  </diagram>
</mxfile>
